<svg xmlns="http://www.w3.org/2000/svg" viewBox="0 0 230.5 230.5">
  <defs>
    <clipPath id="appIconMask">
      <path d="M158.2 230H64.1a320 320 0 0 1-7-.1c-5 0-10-.5-15-1.3a50.8 50.8 0 0 1-14.4-4.8 48.2 48.2 0 0 1-21-21 50.9 50.9 0 0 1-4.8-14.4 100.7 100.7 0 0 1-1.3-15v-7l-.1-8.2V64.1a320 320 0 0 1 .1-7c0-5 .5-10 1.3-15a50.7 50.7 0 0 1 4.8-14.4 48.2 48.2 0 0 1 21-21 51 51 0 0 1 14.4-4.8c5-.8 10-1.2 15-1.3a320 320 0 0 1 7 0l8.2-.1h94.1a320 320 0 0 1 7 .1c5 0 10 .5 15 1.3a52 52 0 0 1 14.4 4.8 48.2 48.2 0 0 1 21 21 50.9 50.9 0 0 1 4.8 14.4c.8 5 1.2 10 1.3 15a320 320 0 0 1 .1 7v102.3l-.1 7c0 5-.5 10-1.3 15a50.7 50.7 0 0 1-4.8 14.4 48.2 48.2 0 0 1-21 21 50.8 50.8 0 0 1-14.4 4.8c-5 .8-10 1.2-15 1.3a320 320 0 0 1-7 0l-8.2.1z"/>
    </clipPath>
  </defs>
  <rect width="230.5" height="230.5" fill="#0a0a0a" clip-path="url(#appIconMask)"/>
  <text x="115.25" y="135" text-anchor="middle" font-family="-apple-system, BlinkMacSystemFont, 'SF Mono', Consolas, monospace" font-size="72" font-weight="700" fill="#4ade80">|o|</text>
</svg>
